HIERARCHY
ROOT Hips
{
	OFFSET 0.00000 0.00000 0.00000
	CHANNELS 6 Xposition Yposition Zposition Yrotation Zrotation Xrotation 
	JOINT Lumbar
	{
		OFFSET 0 0 0
		CHANNELS 3 Zrotation Xrotation Yrotation
		JOINT Neck
		{
			OFFSET 0.00 0.2701 0.00
			CHANNELS 3 Zrotation Xrotation Yrotation
			End Site
			{
				OFFSET 0.00 0.1379 0.00
			}
		}
		JOINT RightShoulder
		{
			OFFSET 0.0119 0.2289 0.1181
			CHANNELS 3 Zrotation Xrotation Yrotation
			JOINT RightElbow
			{
				OFFSET 0.00 -0.1475 0.00
				CHANNELS 2 Zrotation Yrotation
				JOINT RightWrist
				{
					OFFSET 0.00 -0.1605 0.00
					CHANNELS 2 Zrotation Xrotation
					End Site
					{
						OFFSET 0.0040 -0.1068 0.0006
					}
				}
			}
		}
		JOINT LeftShoulder
		{
			OFFSET 0.0119 0.2289 -0.1181
			CHANNELS 3 Zrotation Xrotation Yrotation
			JOINT LeftElbow
			{
				OFFSET 0.00 -0.1475 0.00
				CHANNELS 2 Zrotation Yrotation
				JOINT LeftWrist
				{
					OFFSET 0.00 -0.1605 0.00
					CHANNELS 2 Zrotation Xrotation
					End Site
					{
						OFFSET 0.0040 -0.1068 -0.0006
					}
				}
			}
		}
	}
	JOINT RightHip
	{
		OFFSET 0.0316 -0.0424 0.0458
		CHANNELS 3 Zrotation Xrotation Yrotation
		JOINT RightKnee
		{
			OFFSET 0.00 -0.2438 0.00
			CHANNELS 1 Zrotation
			JOINT RightAnkle
			{
				OFFSET 0.00 -0.2449 0.00
				CHANNELS 3 Zrotation Xrotation Yrotation
				End Site
				{
					OFFSET 0.1237 -0.0542 0.0051
				}
			}
		}
	}
	JOINT LeftHip
	{
		OFFSET 0.0316 -0.0424 -0.0458
		CHANNELS 3 Zrotation Xrotation Yrotation
		JOINT LeftKnee
		{
			OFFSET 0.00 -0.2438 0.00
			CHANNELS 1 Zrotation
			JOINT LeftAnkle
			{
				OFFSET 0.00 -0.2449 0.00
				CHANNELS 3 Zrotation Xrotation Yrotation
				End Site
				{
					OFFSET 0.1237 -0.0542 -0.0051
				}
			}
		}
	}
}
MOTION
Frames: 17
Frame Time: 0.02
0.33172 0.40326 0.30369 182.27197 0 4.11329 52.66613 -1.20079 -1.14699 -54.83274 7.8966 17.55017 80.65978 -40.75567 44.95839 9.62499 90.17709 1.92057 2.7161 73.11198 1.36209 -5.77242 5.78834 -83.21005 -1.62633 4.97422 80.33935 -2.80005 7.09333 -66.49798 -29.1719 -2.46977 3.91144 76.05841 1.45155 -1.17182 -62.86681 -31.00806 1.39585 0.54712
0.33179 0.40341 0.30366 182.24421 0 4.1593 52.84656 -1.10719 -0.85171 -55.03658 7.17342 16.20408 80.66576 -39.0274 43.05357 9.43046 89.99025 1.73189 2.66601 74.31836 2.95029 -6.70764 5.78539 -83.04775 -1.84786 5.27344 80.22903 -2.68864 7.1713 -65.98638 -28.75074 -2.38059 3.71869 75.99331 1.44864 -1.07992 -62.42166 -30.51217 1.33564 0.76441
0.33183 0.40357 0.30367 182.20023 0 4.19922 53.00271 -0.98827 -0.61654 -55.0477 6.46405 14.68403 80.52044 -37.08943 41.03064 9.25207 89.66176 1.52806 2.62001 75.38466 4.72348 -7.9131 5.78704 -82.78819 -2.14968 5.68213 80.08857 -2.55876 7.23128 -65.38772 -28.25684 -2.26888 3.44494 75.91091 1.43866 -1.01827 -61.87547 -29.92123 1.25236 1.04109
0.33188 0.40373 0.30367 182.1646 0 4.23989 53.17121 -0.8807 -0.36326 -55.13553 5.75151 13.25236 80.43404 -35.25481 39.07678 9.06794 89.40621 1.33374 2.57009 76.48741 6.40424 -9.00852 5.79498 -82.5824 -2.41579 6.03492 79.95843 -2.43691 7.3031 -64.81383 -27.8085 -2.17153 3.21729 75.83374 1.42852 -0.95252 -61.35366 -29.38514 1.18364 1.28028
0.33195 0.40388 0.30365 182.12493 0 4.28921 53.33471 -0.77322 -0.06748 -55.27608 5.01867 11.77074 80.39538 -33.37263 37.04345 8.87524 89.11762 1.12684 2.52766 77.72088 8.13358 -10.05741 5.76892 -82.33944 -2.68009 6.41432 79.84189 -2.31632 7.35856 -64.30296 -27.30676 -2.05665 2.95009 75.76719 1.43301 -0.84461 -60.92303 -28.79847 1.09776 1.56492
0.33198 0.40405 0.30366 182.08992 0 4.3191 53.50281 -0.66023 0.12456 -55.25929 4.33577 10.36037 80.21953 -31.55052 35.15748 8.70515 88.86316 0.9435 2.47157 78.64212 9.79522 -11.25805 5.81306 -82.14975 -2.96543 6.76319 79.69038 -2.18875 7.44545 -63.63842 -26.89889 -1.97295 2.74682 75.67488 1.40486 -0.83248 -60.2768 -28.29484 1.04211 1.76814
0.33191 0.40424 0.30372 182.07 0 4.29596 53.68755 -0.53255 0.03927 -54.84521 3.76776 9.13482 79.69573 -29.87705 33.65493 8.59087 88.73529 0.8242 2.37045 78.74284 11.29013 -12.89087 6.06431 -82.12853 -3.30439 7.01142 79.4467 -2.04732 7.60785 -62.58892 -26.77186 -1.98125 2.73147 75.51249 1.29232 -1.07465 -59.07911 -28.04718 1.07559 1.73749
0.33181 0.40444 0.30379 182.05554 0 4.25368 53.87795 -0.40127 -0.14781 -54.28065 3.25408 7.99818 79.03981 -28.28541 32.31638 8.49957 88.64629 0.73018 2.25673 78.53086 12.69702 -14.65148 6.38324 -82.16415 -3.65883 7.22323 79.16969 -1.89934 7.80551 -61.38427 -26.74114 -2.0216 2.78458 75.32552 1.14645 -1.41281 -57.66453 -27.88599 1.14018 1.62185
0.33173 0.40463 0.30385 182.03979 0 4.22062 54.06711 -0.27537 -0.28537 -53.78984 2.729 6.8571 78.44677 -26.70184 30.93782 8.3997 88.54098 0.62785 2.153 78.45478 14.10058 -16.30261 6.66188 -82.17492 -3.99636 7.44498 78.9097 -1.75384 7.99699 -60.23934 -26.66405 -2.04715 2.81202 75.15177 1.01318 -1.70911 -56.33699 -27.68322 1.19067 1.54132
0.33166 0.40483 0.30392 182.01877 0 4.18486 54.25018 -0.13278 -0.43911 -53.26793 2.14767 5.55708 77.83443 -24.91842 29.40716 8.29229 88.42646 0.51153 2.03131 78.39941 15.6947 -18.1835 6.98139 -82.17852 -4.37877 7.6986 78.63988 -1.60991 8.14557 -59.13808 -26.59575 -2.07316 2.81437 74.96823 0.8903 -1.99923 -55.05478 -27.48674 1.24065 1.47731
0.33155 0.40501 0.30398 182.00984 0 4.15061 54.44713 -0.02443 -0.58206 -52.77988 1.69691 4.61268 77.23557 -23.57514 28.23641 8.20601 88.34046 0.43056 1.94407 78.22956 16.86725 -19.60851 7.23122 -82.21142 -4.66984 7.87557 78.38409 -1.46123 8.39301 -57.90869 -26.53254 -2.10579 2.88539 74.80013 0.73807 -2.32435 -53.6277 -27.29895 1.2988 1.35843
0.33129 0.40513 0.30401 182.03658 0 4.12217 54.68507 -0.01183 -0.67438 -52.40346 1.58799 4.62 76.68402 -23.41469 27.99887 8.17102 88.33953 0.44121 1.95453 77.81056 16.90671 -19.77752 7.27689 -82.31483 -4.70844 7.85071 78.16642 -1.30276 8.89747 -56.37629 -26.4639 -2.15162 3.13715 74.67526 0.51167 -2.72561 -51.8562 -27.11463 1.37696 1.10425
0.331 0.40522 0.30402 182.0748 0 4.0965 54.93619 -0.034 -0.75122 -52.07112 1.60958 4.98469 76.15589 -23.69797 28.12241 8.15673 88.36406 0.48667 2.00022 77.28995 16.52211 -19.47588 7.24925 -82.44545 -4.65353 7.74921 77.966 -1.13958 9.50172 -54.71843 -26.39663 -2.20259 3.45434 74.56788 0.25697 -3.15844 -49.94635 -26.93659 1.46152 0.79844
0.33074 0.40532 0.30404 182.10533 0 4.07154 55.17869 -0.04007 -0.83222 -51.73139 1.57486 5.19212 75.63188 -23.78715 28.09464 8.13374 88.36678 0.51602 2.03008 76.82231 16.32462 -19.36562 7.25189 -82.56199 -4.63868 7.68165 77.76336 -0.97744 10.06513 -53.10992 -26.3265 -2.24947 3.7371 74.45609 0.01635 -3.57422 -48.09882 -26.75552 1.5398 0.51882
0.33043 0.40543 0.30407 182.14604 0 4.03756 55.43232 -0.04686 -0.9291 -51.33146 1.52924 5.38046 75.03923 -23.84641 28.01825 8.10835 88.4125 0.54714 2.0586 76.31347 16.14831 -19.35384 7.26939 -82.68828 -4.63465 7.61672 77.53505 -0.81945 10.6105 -51.52795 -26.26932 -2.30481 4.04298 74.32843 -0.22982 -4.00323 -46.24637 -26.57746 1.63298 0.22429
0.3302 0.40551 0.30407 182.16874 0 4.02332 55.666 -0.06096 -0.98769 -51.07118 1.53679 5.69272 74.59884 -24.07327 28.12711 8.09286 88.37608 0.58294 2.0986 75.87231 15.82775 -19.02497 7.23804 -82.79927 -4.58574 7.52845 77.3657 -0.65211 11.21697 -49.8634 -26.184 -2.34342 4.31417 74.23839 -0.47166 -4.41286 -44.3737 -26.3944 1.69674 -0.04977
0.33018 0.40553 0.30402 182.13425 0 4.0626 55.83985 -0.08218 -0.94549 -51.17113 1.65744 6.25593 74.55697 -24.64603 28.65559 8.09695 88.09064 0.61923 2.16023 75.62848 15.21754 -17.92139 7.08607 -82.86744 -4.435 7.39543 77.34693 -0.45716 11.96395 -47.99843 -26.02253 -2.33351 4.48351 74.24773 -0.68619 -4.74253 -42.48417 -26.18779 1.67336 -0.25946
